<svg width="32" height="32" viewBox="0 0 32 32" fill="none" xmlns="http://www.w3.org/2000/svg">
<path d="M19.8978 9.45073L17.1479 4.6638C16.6373 3.77499 15.3565 3.77073 14.8401 4.65613L11.9383 9.63063C11.5539 10.2895 10.9058 10.7523 10.1578 10.9019L6.19288 11.6948C5.16597 11.9002 4.76582 13.155 5.48425 13.917L8.35202 16.9585C8.96525 17.6089 9.21181 18.5233 9.00869 19.3939L7.71064 24.9569C7.44381 26.1005 8.67861 27.0056 9.68884 26.4069L14.6411 23.4722C15.4794 22.9755 16.5218 22.9755 17.3601 23.4722L22.3124 26.4069C23.3226 27.0056 24.5574 26.1005 24.2906 24.9569L22.9811 19.3451C22.7843 18.5016 23.0095 17.615 23.585 16.9676L26.4563 13.7373C27.1404 12.9677 26.731 11.746 25.7212 11.5441L21.6871 10.7373C20.9331 10.5865 20.2809 10.1175 19.8978 9.45073Z" stroke="#437EF7" stroke-width="2" stroke-miterlimit="10"/>
</svg>
